# xmcd CD database file
#
# Track frame offsets:
#	150
#	27337
#	61155
#	87039
#	109252
#	136327
#	161178
#	189728
#	214608
#	237908
#	256213
#	269088
#	282197
#	302605
#	317272
#
# Disc length: 4404 seconds
#
# Revision: 2
# Processed by: cddbd v1.5.2PL0 Copyright (c) Steve Scherf et al.
# Submitted via: CDex 1.51
#
DISCID=d111320f
DTITLE=Elliott Sharp's Terraplane - Do The Don't
DYEAR=2008
DGENRE=Jazz
TTITLE0=Life In A Crackerbox
TTITLE1=Lost Souls
TTITLE2=Stop That Thing
TTITLE3=Skramble
TTITLE4=Oil Blues
TTITLE5=Blues In The Middle
TTITLE6=Please Don't
TTITLE7=L8R On
TTITLE8=In The Drift
TTITLE9=Falling
TTITLE10=Three Kings
TTITLE11=Another Train
TTITLE12=Out Of This Place
TTITLE13=Steel Minor
TTITLE14=Dogpant
EXTD=YEAR: 2008
EXTT0=
EXTT1=
EXTT2=
EXTT3=
EXTT4=
EXTT5=
EXTT6=
EXTT7=
EXTT8=
EXTT9=
EXTT10=
EXTT11=
EXTT12=
EXTT13=
EXTT14=
PLAYORDER=
